<svg width="13" height="13" viewBox="0 0 13 13" fill="none" xmlns="http://www.w3.org/2000/svg">
<path fill-rule="evenodd" clip-rule="evenodd" d="M6.7832 2.59961L6.22599 2.02686C4.91807 0.682403 2.51981 1.14636 1.65408 2.83664C1.24763 3.63165 1.15593 4.77949 1.8981 6.2444C2.61307 7.65491 4.10052 9.34441 6.7832 11.1847C9.46589 9.34441 10.9526 7.65491 11.6683 6.2444C12.4105 4.77871 12.3196 3.63165 11.9123 2.83664C11.0466 1.14636 8.64834 0.681626 7.34041 2.02608L6.7832 2.59961ZM6.7832 12.1211C-5.13269 4.24715 3.11432 -1.89848 6.64643 1.3523C6.69306 1.39504 6.73891 1.43934 6.7832 1.48519C6.82705 1.43938 6.87268 1.39531 6.91998 1.35308C10.4513 -1.90003 18.6991 4.24637 6.7832 12.1211Z" fill="#323334"/>
</svg>
