<svg width="91" height="16" viewBox="0 0 91 16" fill="none" xmlns="http://www.w3.org/2000/svg">
<path d="M7.53333 0L5.02222 5.02222L0 5.65L3.45696 9.51711L2.51111 15.0667L7.53333 12.5556L12.5556 15.0667L11.6181 9.51711L15.0667 5.65L10.0444 5.02222L7.53333 0ZM7.53333 1.87496L9.492 5.80067L13.3842 6.28615L10.7224 9.266L11.4507 13.5767L7.53333 11.6181L3.616 13.5767L4.34422 9.266L1.68244 6.28615L5.57467 5.80067L7.53333 1.87496Z" fill="#F2C94C"/>
<path d="M26.3666 0L23.8555 5.02222L18.8333 5.65L22.2902 9.51711L21.3444 15.0667L26.3666 12.5556L31.3888 15.0667L30.4513 9.51711L33.8999 5.65L28.8777 5.02222L26.3666 0ZM26.3666 1.87496L28.3253 5.80067L32.2175 6.28615L29.5557 9.266L30.2839 13.5767L26.3666 11.6181L22.4493 13.5767L23.1775 9.266L20.5157 6.28615L24.4079 5.80067L26.3666 1.87496Z" fill="#F2C94C"/>
<path d="M45.2001 0L42.689 5.02222L37.6667 5.65L41.1237 9.51711L40.1779 15.0667L45.2001 12.5556L50.2223 15.0667L49.2848 9.51711L52.7334 5.65L47.7112 5.02222L45.2001 0ZM45.2001 1.87496L47.1587 5.80067L51.051 6.28615L48.3892 9.266L49.1174 13.5767L45.2001 11.6181L41.2827 13.5767L42.011 9.266L39.3492 6.28615L43.2414 5.80067L45.2001 1.87496Z" fill="#F2C94C"/>
<path d="M64.0333 0L61.5222 5.02222L56.5 5.65L59.957 9.51711L59.0111 15.0667L64.0333 12.5556L69.0556 15.0667L68.1181 9.51711L71.5667 5.65L66.5444 5.02222L64.0333 0ZM64.0333 1.87496L65.992 5.80067L69.8842 6.28615L67.2224 9.266L67.9507 13.5767L64.0333 11.6181L60.116 13.5767L60.8442 9.266L58.1824 6.28615L62.0747 5.80067L64.0333 1.87496Z" fill="#F2C94C"/>
<g opacity="0.4">
<mask id="path-5-inside-1_1_162" fill="white">
<path d="M82.8666 0L80.3555 5.02222L75.3333 5.65L78.7902 9.51711L77.8444 15.0667L82.8666 12.5556L87.8888 15.0667L86.9513 9.51711L90.3999 5.65L85.3777 5.02222L82.8666 0ZM82.8666 1.87496L84.8253 5.80067L88.7175 6.28615L86.0557 9.266L86.7839 13.5767L82.8666 11.6181L78.9493 13.5767L79.6775 9.266L77.0157 6.28615L80.9079 5.80067L82.8666 1.87496Z"/>
</mask>
<path d="M82.8666 0L80.3555 5.02222L75.3333 5.65L78.7902 9.51711L77.8444 15.0667L82.8666 12.5556L87.8888 15.0667L86.9513 9.51711L90.3999 5.65L85.3777 5.02222L82.8666 0ZM82.8666 1.87496L84.8253 5.80067L88.7175 6.28615L86.0557 9.266L86.7839 13.5767L82.8666 11.6181L78.9493 13.5767L79.6775 9.266L77.0157 6.28615L80.9079 5.80067L82.8666 1.87496Z" fill="#F2C94C"/>
<path d="M82.8666 0L83.9399 -0.536656L82.8666 -2.68328L81.7933 -0.536656L82.8666 0ZM80.3555 5.02222L80.5043 6.21295L81.1416 6.1333L81.4288 5.55888L80.3555 5.02222ZM75.3333 5.65L75.1844 4.45927L72.913 4.74319L74.4386 6.44976L75.3333 5.65ZM78.7902 9.51711L79.9732 9.71873L80.0703 9.14856L79.6849 8.71735L78.7902 9.51711ZM77.8444 15.0667L76.6614 14.865L76.2637 17.1986L78.381 16.14L77.8444 15.0667ZM82.8666 12.5556L83.4032 11.4822L82.8666 11.2139L82.3299 11.4822L82.8666 12.5556ZM87.8888 15.0667L87.3521 16.14L89.4656 17.1967L89.072 14.8668L87.8888 15.0667ZM86.9513 9.51711L86.0557 8.71843L85.6721 9.14863L85.7681 9.71699L86.9513 9.51711ZM90.3999 5.65L91.2955 6.44868L92.8168 4.74277L90.5488 4.45927L90.3999 5.65ZM85.3777 5.02222L84.3044 5.55888L84.5916 6.1333L85.2289 6.21295L85.3777 5.02222ZM82.8666 1.87496L83.9404 1.33922L82.8666 -0.812906L81.7928 1.33922L82.8666 1.87496ZM84.8253 5.80067L83.7515 6.33641L84.0386 6.91184L84.6767 6.99144L84.8253 5.80067ZM88.7175 6.28615L89.6124 7.08557L91.1371 5.37866L88.866 5.09537L88.7175 6.28615ZM86.0557 9.266L85.1607 8.46658L84.7763 8.89692L84.8725 9.46589L86.0557 9.266ZM86.7839 13.5767L86.2473 14.6501L88.3608 15.7068L87.9672 13.3769L86.7839 13.5767ZM82.8666 11.6181L83.4032 10.5448L82.8666 10.2764L82.3299 10.5448L82.8666 11.6181ZM78.9493 13.5767L77.766 13.3769L77.3724 15.7068L79.4859 14.6501L78.9493 13.5767ZM79.6775 9.266L80.8607 9.46589L80.9568 8.89692L80.5724 8.46658L79.6775 9.266ZM77.0157 6.28615L76.8672 5.09537L74.596 5.37866L76.1207 7.08557L77.0157 6.28615ZM80.9079 5.80067L81.0564 6.99144L81.6946 6.91184L81.9817 6.33641L80.9079 5.80067ZM81.7933 -0.536656L79.2822 4.48557L81.4288 5.55888L83.9399 0.536656L81.7933 -0.536656ZM80.2066 3.83149L75.1844 4.45927L75.4821 6.84073L80.5043 6.21295L80.2066 3.83149ZM74.4386 6.44976L77.8956 10.3169L79.6849 8.71735L76.2279 4.85024L74.4386 6.44976ZM77.6073 9.31549L76.6614 14.865L79.0273 15.2683L79.9732 9.71873L77.6073 9.31549ZM78.381 16.14L83.4032 13.6289L82.3299 11.4822L77.3077 13.9934L78.381 16.14ZM82.3299 13.6289L87.3521 16.14L88.4255 13.9934L83.4032 11.4822L82.3299 13.6289ZM89.072 14.8668L88.1346 9.31723L85.7681 9.71699L86.7056 15.2665L89.072 14.8668ZM87.8469 10.3158L91.2955 6.44868L89.5043 4.85132L86.0557 8.71843L87.8469 10.3158ZM90.5488 4.45927L85.5265 3.83149L85.2289 6.21295L90.2511 6.84073L90.5488 4.45927ZM86.451 4.48557L83.9399 -0.536656L81.7933 0.536656L84.3044 5.55888L86.451 4.48557ZM81.7928 2.4107L83.7515 6.33641L85.899 5.26493L83.9404 1.33922L81.7928 2.4107ZM84.6767 6.99144L88.5689 7.47692L88.866 5.09537L84.9738 4.60989L84.6767 6.99144ZM87.8225 5.48673L85.1607 8.46658L86.9506 10.0654L89.6124 7.08557L87.8225 5.48673ZM84.8725 9.46589L85.6007 13.7766L87.9672 13.3769L87.2389 9.06611L84.8725 9.46589ZM87.3206 12.5034L83.4032 10.5448L82.3299 12.6914L86.2473 14.6501L87.3206 12.5034ZM82.3299 10.5448L78.4126 12.5034L79.4859 14.6501L83.4032 12.6914L82.3299 10.5448ZM80.1325 13.7766L80.8607 9.46589L78.4942 9.06611L77.766 13.3769L80.1325 13.7766ZM80.5724 8.46658L77.9106 5.48673L76.1207 7.08557L78.7825 10.0654L80.5724 8.46658ZM77.1642 7.47692L81.0564 6.99144L80.7594 4.60989L76.8672 5.09537L77.1642 7.47692ZM81.9817 6.33641L83.9404 2.4107L81.7928 1.33922L79.8341 5.26493L81.9817 6.33641Z" fill="#323334" mask="url(#path-5-inside-1_1_162)"/>
</g>
</svg>
